<?xml version="1.0" encoding="utf-8"?>
<!-- Generator: Adobe Illustrator 19.1.0, SVG Export Plug-In . SVG Version: 6.00 Build 0)  -->
<svg version="1.1" id="Layer_1" xmlns="http://www.w3.org/2000/svg" xmlns:xlink="http://www.w3.org/1999/xlink" x="0px" y="0px"
	 viewBox="0 0 153 66" style="enable-background:new 0 0 153 66;" xml:space="preserve">
<style type="text/css">
	.st0{opacity:0.2;}
	.st1{fill:#231F20;stroke:url(#SVGID_1_);stroke-miterlimit:10;}
	.st2{fill:#231F20;stroke:url(#SVGID_2_);stroke-miterlimit:10;}
	.st3{fill:#231F20;stroke:url(#SVGID_3_);stroke-miterlimit:10;}
	.st4{fill:#231F20;stroke:url(#SVGID_4_);stroke-miterlimit:10;}
	.st5{fill:#231F20;stroke:url(#SVGID_5_);stroke-miterlimit:10;}
	.st6{fill:#231F20;stroke:url(#SVGID_6_);stroke-miterlimit:10;}
	.st7{fill:#231F20;stroke:url(#SVGID_7_);stroke-miterlimit:10;}
	.st8{fill:#231F20;stroke:url(#SVGID_8_);stroke-miterlimit:10;}
	.st9{fill:#231F20;stroke:url(#SVGID_9_);stroke-miterlimit:10;}
	.st10{fill:#231F20;stroke:url(#SVGID_10_);stroke-miterlimit:10;}
	.st11{fill:#231F20;stroke:url(#SVGID_11_);stroke-miterlimit:10;}
	.st12{fill:#231F20;stroke:url(#SVGID_12_);stroke-miterlimit:10;}
	.st13{fill:#231F20;stroke:url(#SVGID_13_);stroke-miterlimit:10;}
	.st14{fill:#231F20;stroke:url(#SVGID_14_);stroke-miterlimit:10;}
	.st15{fill:#231F20;stroke:url(#SVGID_15_);stroke-miterlimit:10;}
	.st16{fill:#231F20;stroke:url(#SVGID_16_);stroke-miterlimit:10;}
	.st17{fill:#FFFFFF;}
</style>
<g class="st0">
	<linearGradient id="SVGID_1_" gradientUnits="userSpaceOnUse" x1="20.7007" y1="19.9822" x2="46.0847" y2="19.9822">
		<stop  offset="0" style="stop-color:#FFFFFF"/>
		<stop  offset="1" style="stop-color:#000000"/>
	</linearGradient>
	<path class="st1" d="M45.1,30.2c-1.1,0.1-1.7,0.1-1.9,0.1c-0.9,0-1.6-0.4-1.9-1.1c-0.4-0.8-0.7-2.5-0.9-5.1l-1-11.3l-0.2-5.8
		l-3.6,0.7c-1.1,0.1-1.9,0.1-2.4,0.2c-2.7,0.2-4.8,0.6-6.2,1.3c-1.5,0.7-2.7,1.8-3.8,3.3c-1,1.4-1.6,3.1-1.8,5.2L21.3,18l3.8-1.9V16
		c0-2,0.6-3.6,1.8-4.7c1.2-1.1,2.9-1.6,5.1-1.6c0.7,0,1.6,0.1,2.6,0.2l-6.9,11.9c-1.9,3.4-3.6,5.8-5,7.1l-0.1,0.1l-0.1,2.8l0.5-0.4
		c1.5-1.2,3.2-3.3,4.9-6.2h8.5l0.7,8.1l8-1.3l0.3-1.6L45.1,30.2z M36.3,23.2h-7.3L35.3,12L36.3,23.2z"/>
	<linearGradient id="SVGID_2_" gradientUnits="userSpaceOnUse" x1="44.7973" y1="17.9719" x2="65.0632" y2="17.9719">
		<stop  offset="0" style="stop-color:#FFFFFF"/>
		<stop  offset="1" style="stop-color:#000000"/>
	</linearGradient>
	<path class="st2" d="M63.7,3.5c-0.9-0.2-1.9-0.4-3-0.4c-3.2,0-6,1.1-8.2,3.4c-2.2,2.2-3.7,5.4-4.5,9.4l-2.3,11.3
		c-0.2,1.2-0.4,2.1-0.4,2.8c0,1.8,0.9,2.8,2.6,2.8c1.9,0,4.2-1.4,6.9-4l0.1-0.1l0.5-2.4l-0.6,0.5c-0.4,0.4-0.7,0.6-0.9,0.8
		c-2.5,2.4-3.6,2.8-4.1,2.8c-0.5,0-0.7-0.2-0.7-0.8c0-0.4,0.1-1.2,0.4-2.4l2.6-13c0.7-3.5,1.5-5.9,2.3-7.1c0.8-1.2,2-1.8,3.7-1.8
		c0.9,0,1.9,0.3,3.2,0.8l0.2,0.1l2.7-2.8L63.7,3.5z"/>
	<linearGradient id="SVGID_3_" gradientUnits="userSpaceOnUse" x1="53.6608" y1="23.3432" x2="76.799" y2="23.3432">
		<stop  offset="0" style="stop-color:#FFFFFF"/>
		<stop  offset="1" style="stop-color:#000000"/>
	</linearGradient>
	<path class="st3" d="M75.3,27c-2.6,2.9-4,3.5-4.7,3.5c-0.5,0-0.7-0.2-0.7-0.8c0-0.2,0.1-0.9,0.4-2.4l1.6-8.1l1.3-5.2l-0.3,0
		c-1.7-0.1-3.4-0.2-4.9-0.2c-3.9,0-7.2,1.6-9.8,4.8c-2.6,3.1-3.9,6.3-3.9,9.5c0,3.1,1.3,4.6,3.7,4.6c1.6,0,3.3-0.9,5.1-2.7
		c1.5-1.5,2.9-3.5,4.1-5.8l-0.6,2.9c-0.3,1.3-0.4,2.3-0.4,2.8c0,1.8,0.9,2.8,2.7,2.8c2,0,4.2-1.3,6.7-3.9l0.1-0.1l0.5-2.6L75.3,27z
		 M64.8,16c1.2,0,2.5,0.3,3.8,0.8l-0.7,3.5C66.6,22.8,65,25,63.3,27c-2.1,2.4-3.3,2.9-3.9,2.9c-0.3,0-1.2,0-1.2-2.3
		c0-2.3,0.7-5,2.1-7.9C61.4,17.2,62.9,16,64.8,16z"/>
	<linearGradient id="SVGID_4_" gradientUnits="userSpaceOnUse" x1="74.466" y1="17.9719" x2="106.7953" y2="17.9719">
		<stop  offset="0" style="stop-color:#FFFFFF"/>
		<stop  offset="1" style="stop-color:#000000"/>
	</linearGradient>
	<path class="st4" d="M105.4,3.5c-0.9-0.2-1.9-0.4-3-0.4c-2.7,0-5.1,0.9-7.4,2.6c-1.3,1-2.3,2.1-3,3.3c-0.7,1.1-1.4,2.8-2,4.8
		c-2.2,0-3.9,0.2-5.1,0.5c-1.2,0.3-2.5,1-3.7,2c-1.8,1.5-3.3,3.3-4.5,5.5c-1.1,2.2-1.7,4.3-1.7,6.3c0,3.1,1.3,4.6,3.8,4.6
		c1.6,0,3.3-0.9,5.1-2.7c1.5-1.5,2.9-3.5,4.1-5.9l-0.6,2.9c-0.3,1.4-0.4,2.3-0.4,2.8c0,1.8,0.9,2.8,2.7,2.8c2,0,4.2-1.3,6.6-3.9
		l0.1-0.1l0.5-2.6L96.1,27c-2.6,2.9-4,3.5-4.7,3.5c-0.4,0-0.7-0.1-0.7-0.8c0-0.3,0.1-1.1,0.4-2.4l2.6-13c0.7-3.4,1.5-5.8,2.3-7.1
		c0.8-1.2,2.1-1.8,3.7-1.8c0.9,0,1.9,0.3,3.2,0.8l0.2,0.1l2.7-2.8L105.4,3.5z M89.4,16.8l-0.7,3.5c-1.3,2.5-2.9,4.7-4.6,6.7
		c-2.1,2.4-3.3,2.9-3.9,2.9c-0.3,0-1.2,0-1.2-2.3c0-2.3,0.7-5,2.1-7.9c1.2-2.4,2.6-3.6,4.5-3.6C86.8,16,88.1,16.3,89.4,16.8z"/>
	<linearGradient id="SVGID_5_" gradientUnits="userSpaceOnUse" x1="95.2548" y1="17.9719" x2="127.5841" y2="17.9719">
		<stop  offset="0" style="stop-color:#FFFFFF"/>
		<stop  offset="1" style="stop-color:#000000"/>
	</linearGradient>
	<path class="st5" d="M126.2,3.5c-0.9-0.2-1.9-0.4-3-0.4c-2.7,0-5.1,0.9-7.4,2.6c-1.3,1-2.3,2.1-3,3.3c-0.7,1.1-1.4,2.8-2,4.8
		c-2.2,0-3.9,0.2-5.1,0.5c-1.2,0.3-2.5,1-3.7,2c-1.8,1.5-3.3,3.3-4.5,5.5c-1.1,2.2-1.7,4.3-1.7,6.3c0,3.1,1.3,4.6,3.8,4.6
		c1.6,0,3.3-0.9,5.1-2.7c1.5-1.5,2.9-3.5,4.1-5.9l-0.6,2.9c-0.3,1.4-0.4,2.3-0.4,2.8c0,1.8,0.9,2.8,2.7,2.8c2,0,4.2-1.3,6.6-3.9
		l0.1-0.1l0.5-2.6l-0.7,0.8c-2.6,2.9-4,3.5-4.7,3.5c-0.4,0-0.7-0.1-0.7-0.8c0-0.3,0.1-1.1,0.4-2.4l2.6-13c0.7-3.4,1.5-5.8,2.3-7.1
		c0.8-1.2,2.1-1.8,3.7-1.8c0.9,0,1.9,0.3,3.2,0.8l0.2,0.1l2.7-2.8L126.2,3.5z M110.2,16.8l-0.7,3.5c-1.3,2.5-2.9,4.7-4.6,6.7
		c-2.1,2.4-3.3,2.9-3.9,2.9c-0.3,0-1.2,0-1.2-2.3c0-2.3,0.7-5,2.1-7.9c1.2-2.4,2.6-3.6,4.5-3.6C107.6,16,108.9,16.3,110.2,16.8z"/>
	<g>
		<linearGradient id="SVGID_6_" gradientUnits="userSpaceOnUse" x1="116.4672" y1="23.0474" x2="129.6357" y2="23.0474">
			<stop  offset="0" style="stop-color:#FFFFFF"/>
			<stop  offset="1" style="stop-color:#000000"/>
		</linearGradient>
		<path class="st6" d="M128.1,27c-2.6,2.9-4,3.5-4.7,3.5c-0.4,0-0.7-0.1-0.7-0.8c0-0.3,0.1-1.1,0.4-2.4l1.6-8.1l1.4-5.7l-8.7,2.8
			l-0.3,1.6l0.4-0.1c1.2-0.4,2.1-0.5,2.6-0.5c0.4,0,0.8,0.1,0.8,1.1c0,0.5-0.2,1.6-0.5,3.2l-1.1,5.7c-0.3,1.3-0.4,2.2-0.4,2.8
			c0,1.8,0.9,2.8,2.6,2.8c2,0,4.2-1.3,6.7-3.9l0.1-0.1l0.5-2.6L128.1,27z"/>
		<linearGradient id="SVGID_7_" gradientUnits="userSpaceOnUse" x1="120.562" y1="8.2531" x2="129.9086" y2="8.2531">
			<stop  offset="0" style="stop-color:#FFFFFF"/>
			<stop  offset="1" style="stop-color:#000000"/>
		</linearGradient>
		<polygon class="st7" points="128.7,5 123.2,8.6 121.7,11.7 126.8,9 		"/>
	</g>
	<linearGradient id="SVGID_8_" gradientUnits="userSpaceOnUse" x1="125.2227" y1="23.2447" x2="151.8269" y2="23.2447">
		<stop  offset="0" style="stop-color:#FFFFFF"/>
		<stop  offset="1" style="stop-color:#000000"/>
	</linearGradient>
	<path class="st8" d="M150.3,27c-2.6,2.9-4,3.5-4.7,3.5c-0.5,0-0.7-0.2-0.7-0.8c0-0.4,0.1-1.2,0.4-2.4l1.6-8
		c0.2-0.9,0.3-1.8,0.3-2.4c0-2.1-1-3.3-3-3.3c-1.6,0-3.2,0.9-5,2.6c-1.5,1.5-2.9,3.5-4.2,5.8l0.6-2.9c0.3-1.3,0.4-2.3,0.4-2.8
		c0-1.8-0.9-2.7-2.6-2.7c-2,0-4.2,1.3-6.7,4l-0.1,0.1l-0.5,2.6l0.7-0.7c2.6-2.9,4-3.5,4.7-3.5c0.5,0,0.7,0.2,0.7,0.7
		c0,0.4-0.1,1.2-0.4,2.4l-1.6,8.1l-1.3,5.4l4.1-0.2l1.2-6c3.6-6.5,6.5-9.8,8.4-9.8c0.2,0,0.7,0,0.7,1c0,0.4-0.1,0.9-0.2,1.5l-1.6,8
		c-0.3,1.3-0.4,2.3-0.4,2.8c0,1.8,0.9,2.8,2.6,2.8c2,0,4.2-1.3,6.7-3.9l0.1-0.1l0.5-2.6L150.3,27z"/>
	<g>
		<linearGradient id="SVGID_9_" gradientUnits="userSpaceOnUse" x1="61.1542" y1="46.2209" x2="79.2505" y2="46.2209">
			<stop  offset="0" style="stop-color:#FFFFFF"/>
			<stop  offset="1" style="stop-color:#000000"/>
		</linearGradient>
		<path class="st9" d="M76.1,40.8h1.7l0.8-4.1l-0.3-0.2c-1.7-0.8-3.2-1.1-4.5-1.1c-2,0-3.8,0.6-5.3,1.9c-1.5,1.3-2.3,2.9-2.3,4.6
			c0,0.9,0.2,1.7,0.6,2.3c0.4,0.5,1.2,1.4,2.7,2.7l1.9,1.7c1.3,1.2,2,2.3,2,3.2c0,0.9-0.3,1.7-1,2.3c-0.7,0.6-1.6,0.9-2.7,0.9
			c-1.6,0-3.2-0.6-4.8-1.9l-0.3-0.3L62,55.5l0.6,0.3c1.7,0.9,3.5,1.3,5.3,1.3c2.4,0,4.4-0.6,6.1-1.9c1.8-1.3,2.7-2.9,2.7-4.8
			c0-1.5-0.9-3-2.8-4.6l-1.6-1.4c-1.2-1-2-1.8-2.4-2.3c-0.3-0.5-0.5-1-0.5-1.6c0-0.9,0.3-1.6,1-2.2c0.7-0.6,1.5-0.9,2.6-0.9
			c1,0,1.8,0.2,2.4,0.7c0.6,0.4,0.8,1,0.8,1.7c0,0.1,0,0.3,0,0.5L76.1,40.8z"/>
		<linearGradient id="SVGID_10_" gradientUnits="userSpaceOnUse" x1="76.7423" y1="46.6344" x2="92.0988" y2="46.6344">
			<stop  offset="0" style="stop-color:#FFFFFF"/>
			<stop  offset="1" style="stop-color:#000000"/>
		</linearGradient>
		<path class="st10" d="M83.5,54.3c-0.3,0-0.5,0-0.5-0.6c0-0.2,0-0.8,0.3-1.9l1.7-8.7h0.7c0.9,0,1.9,0.1,3,0.2l0.2,0l2-2.1h-5.5
			l0.9-4.6l-3.8,0.9l-0.7,3.7h-2.1l-1.8,1.9h3.6l-1.7,8.4c-0.2,1-0.3,1.8-0.3,2.5c0,1.9,1,3,2.7,3c1.7,0,3.5-0.9,5.3-2.7l0.1-0.1
			l0.5-2.7l-1,0.9C85.2,53.9,84.1,54.3,83.5,54.3z"/>
		<linearGradient id="SVGID_11_" gradientUnits="userSpaceOnUse" x1="87.5924" y1="48.8039" x2="106.8535" y2="48.8039">
			<stop  offset="0" style="stop-color:#FFFFFF"/>
			<stop  offset="1" style="stop-color:#000000"/>
		</linearGradient>
		<path class="st11" d="M106.1,41.6l-0.5-0.3c-0.6-0.3-1.2-0.5-1.9-0.5c-1.3,0-2.8,0.8-4.3,2.2c-0.9,0.9-1.8,2-2.6,3.3l0.1-0.6
			c0.2-0.8,0.2-1.6,0.2-2.2c0-2.3-1.5-2.7-2.4-2.7c-1.7,0-3.5,1.1-5.7,3.5l-0.1,0.1l-0.6,3.1l1.2-1.3c2.2-2.5,3.2-2.8,3.7-2.8
			c0.1,0,0.3,0,0.3,0.7c0,0.4-0.1,1-0.2,1.6L92.2,52L91,56.7l3.8-0.2l1-5.1c3.4-6,5.4-7.3,6.5-7.3c0.2,0,0.5,0.1,1.1,0.4l0.4,0.2
			L106.1,41.6z"/>
		<linearGradient id="SVGID_12_" gradientUnits="userSpaceOnUse" x1="102.9792" y1="48.8543" x2="117.0156" y2="48.8543">
			<stop  offset="0" style="stop-color:#FFFFFF"/>
			<stop  offset="1" style="stop-color:#000000"/>
		</linearGradient>
		<path class="st12" d="M109.6,54.4c-1,0-2.4-0.4-2.4-3.4l0-0.1c2.3-0.1,4.3-0.7,6-1.9c1.9-1.3,2.8-2.9,2.8-4.8c0-1-0.3-1.8-0.9-2.4
			c-0.6-0.6-1.3-0.9-2.3-0.9c-2.3,0-4.5,1.2-6.5,3.5c-2,2.3-3,4.8-3,7.4c0,1.5,0.4,2.8,1.3,3.7c0.9,1,2,1.5,3.4,1.5
			c2.1,0,4.6-1,7.5-3l0.2-0.1l0.5-2.4l-1,0.7C113.1,53.6,111.1,54.4,109.6,54.4z M111.7,43.1c0.3,0,1,0,1,1.6c0,1.2-0.5,2.2-1.5,3
			c-0.9,0.7-2.2,1.2-3.8,1.4c0.2-1.5,0.8-2.8,1.6-4C109.8,43.8,110.8,43.1,111.7,43.1z"/>
		<linearGradient id="SVGID_13_" gradientUnits="userSpaceOnUse" x1="116.9367" y1="48.8543" x2="130.9735" y2="48.8543">
			<stop  offset="0" style="stop-color:#FFFFFF"/>
			<stop  offset="1" style="stop-color:#000000"/>
		</linearGradient>
		<path class="st13" d="M123.6,54.4c-1,0-2.4-0.4-2.4-3.4l0-0.1c2.3-0.1,4.3-0.7,6-1.9c1.9-1.3,2.8-2.9,2.8-4.8c0-1-0.3-1.8-0.9-2.4
			c-0.6-0.6-1.3-0.9-2.3-0.9c-2.3,0-4.5,1.2-6.5,3.5c-2,2.3-3,4.8-3,7.4c0,1.5,0.4,2.8,1.3,3.7c0.9,1,2,1.5,3.4,1.5
			c2.1,0,4.6-1,7.5-3l0.2-0.1l0.5-2.4l-1,0.7C127,53.6,125.1,54.4,123.6,54.4z M125.1,47.7c-0.9,0.7-2.2,1.2-3.8,1.4
			c0.2-1.5,0.8-2.8,1.6-4c0.9-1.3,1.8-1.9,2.7-1.9c0.3,0,1,0,1,1.6C126.6,45.9,126.1,46.9,125.1,47.7z"/>
		<linearGradient id="SVGID_14_" gradientUnits="userSpaceOnUse" x1="129.9629" y1="46.6344" x2="145.3185" y2="46.6344">
			<stop  offset="0" style="stop-color:#FFFFFF"/>
			<stop  offset="1" style="stop-color:#000000"/>
		</linearGradient>
		<path class="st14" d="M138.6,41.2l0.9-4.6l-3.8,0.9l-0.7,3.7h-2.1l-1.8,1.9h3.6l-1.7,8.4c-0.2,1-0.3,1.8-0.3,2.5c0,1.9,1,3,2.7,3
			c1.7,0,3.5-0.9,5.3-2.7l0.1-0.1l0.5-2.7l-1,0.9c-1.9,1.7-3,2-3.6,2c-0.3,0-0.5,0-0.5-0.6c0-0.2,0-0.8,0.3-1.9l1.7-8.7h0.7
			c0.9,0,1.9,0.1,3,0.2l0.2,0l2-2.1H138.6z"/>
	</g>
	<linearGradient id="SVGID_15_" gradientUnits="userSpaceOnUse" x1="22.3249" y1="50.6657" x2="67.0041" y2="50.6657">
		<stop  offset="0" style="stop-color:#FFFFFF"/>
		<stop  offset="1" style="stop-color:#000000"/>
	</linearGradient>
	<path class="st15" d="M64.9,47.3c-1.2-1.1-2.5-1.7-2.5-1.7c0-0.9-0.3-1.7-1-1.8c-0.6-0.1-1,0.6-1,0.6c-2-2.5-4.3-3.4-5.6-3.8v-0.7
		h-0.1c0.6-0.3,0.9-0.9,0.9-1.6c0-1-0.8-1.9-1.9-1.9c-1,0-1.9,0.8-1.9,1.9c0,0.7,0.4,1.3,0.9,1.6h-0.1v0.8c-6.2,1.9-6.8,4.3-6.8,4.3
		s-1.5,1.4-4.5,1.4c-3,0-9.2-3.1-12.4-4c-3.1-0.9-6.2-0.3-6.2,0.7c0,1,1,1.1,1,1.1c2.1-0.1,5.9,1.6,15.8,9.2c3.6,2.8,7.5,4.4,11,5
		c-1.2,0.7-2.9,1.7-4.2,3.2c-2.5,2.8,5.4,3.2,7.6,3.2c2.3,0,10.1-0.5,7.6-3.2c-1.4-1.5-3-2.6-4.2-3.3c3.2-0.6,6-2.1,7.7-4.2
		c0.4-0.5,0.7-1,0.9-1.4C66,52.8,67.6,50.1,64.9,47.3z M24.7,43.3c-0.7,0-1.2-0.1-1.2-0.4c0-0.2,0.5-0.5,1.2-0.5
		c0.7,0,1.2,0.1,1.2,0.4C25.9,43,25.4,43.2,24.7,43.3z"/>
	<linearGradient id="SVGID_16_" gradientUnits="userSpaceOnUse" x1="1.487" y1="34.6734" x2="25.2313" y2="34.6734">
		<stop  offset="0" style="stop-color:#FFFFFF"/>
		<stop  offset="1" style="stop-color:#000000"/>
	</linearGradient>
	<path class="st16" d="M24.2,41.6c0,0-1-0.7,0-2.6c0.9-1.6-0.3-1.9-4.3-1.7c-3,0.1-5.1,0.3-4.4-1.9c0.7-2.2,1.8-5.5-3.9-6.5
		c-5.7-1-11,4.9-9.2,7.4s10.6,5.5,22.3-6.6l-1.1-1.8c0,0-7.3,7.8-15.2,8c-7.2,0.2,0.2-6.4,3.8-4.1s-2,4.4,3.2,6.6
		c2.9,1.2,8.8-1.6,8.2,0.8c-0.2,1-0.4,2,0.1,2.5C24.2,42.1,24.2,41.6,24.2,41.6z"/>
</g>
<g>
	<path class="st17" d="M44.1,29.2c-1.1,0.1-1.7,0.1-1.9,0.1c-0.9,0-1.6-0.4-1.9-1.1c-0.4-0.8-0.7-2.5-0.9-5.1l-1-11.3l-0.2-5.8
		l-3.6,0.7c-1.1,0.1-1.9,0.1-2.4,0.2c-2.7,0.2-4.8,0.6-6.2,1.3c-1.5,0.7-2.7,1.8-3.8,3.3c-1,1.4-1.6,3.1-1.8,5.2l-0.1,0.5l3.8-1.9
		V15c0-2,0.6-3.6,1.8-4.7c1.2-1.1,2.9-1.6,5.1-1.6c0.7,0,1.6,0.1,2.6,0.2l-6.9,11.9c-1.9,3.4-3.6,5.8-5,7.1l-0.1,0.1l-0.1,2.8
		l0.5-0.4c1.5-1.2,3.2-3.3,4.9-6.2h8.5l0.7,8.1l8-1.3l0.3-1.6L44.1,29.2z M35.3,22.2h-7.3L34.3,11L35.3,22.2z"/>
	<path class="st17" d="M62.7,2.5c-0.9-0.2-1.9-0.4-3-0.4c-3.2,0-6,1.1-8.2,3.4c-2.2,2.2-3.7,5.4-4.5,9.4l-2.3,11.3
		c-0.2,1.2-0.4,2.1-0.4,2.8c0,1.8,0.9,2.8,2.6,2.8c1.9,0,4.2-1.4,6.9-4l0.1-0.1l0.5-2.4l-0.6,0.5c-0.4,0.4-0.7,0.6-0.9,0.8
		c-2.5,2.4-3.6,2.8-4.1,2.8c-0.5,0-0.7-0.2-0.7-0.8c0-0.4,0.1-1.2,0.4-2.4l2.6-13c0.7-3.5,1.5-5.9,2.3-7.1c0.8-1.2,2-1.8,3.7-1.8
		c0.9,0,1.9,0.3,3.2,0.8l0.2,0.1l2.7-2.8L62.7,2.5z"/>
	<path class="st17" d="M74.3,26c-2.6,2.9-4,3.5-4.7,3.5c-0.5,0-0.7-0.2-0.7-0.8c0-0.2,0.1-0.9,0.4-2.4l1.6-8.1l1.3-5.2l-0.3,0
		c-1.7-0.1-3.4-0.2-4.9-0.2c-3.9,0-7.2,1.6-9.8,4.8c-2.6,3.1-3.9,6.3-3.9,9.5c0,3.1,1.3,4.6,3.7,4.6c1.6,0,3.3-0.9,5.1-2.7
		c1.5-1.5,2.9-3.5,4.1-5.8l-0.6,2.9c-0.3,1.3-0.4,2.3-0.4,2.8c0,1.8,0.9,2.8,2.7,2.8c2,0,4.2-1.3,6.7-3.9l0.1-0.1l0.5-2.6L74.3,26z
		 M63.8,15c1.2,0,2.5,0.3,3.8,0.8l-0.7,3.5c-1.3,2.5-2.9,4.7-4.6,6.7c-2.1,2.4-3.3,2.9-3.9,2.9c-0.3,0-1.2,0-1.2-2.3
		c0-2.3,0.7-5,2.1-7.9C60.4,16.2,61.9,15,63.8,15z"/>
	<path class="st17" d="M104.4,2.5c-0.9-0.2-1.9-0.4-3-0.4c-2.7,0-5.1,0.9-7.4,2.6c-1.3,1-2.3,2.1-3,3.3c-0.7,1.1-1.4,2.8-2,4.8
		c-2.2,0-3.9,0.2-5.1,0.5c-1.2,0.3-2.5,1-3.7,2c-1.8,1.5-3.3,3.3-4.5,5.5c-1.1,2.2-1.7,4.3-1.7,6.3c0,3.1,1.3,4.6,3.8,4.6
		c1.6,0,3.3-0.9,5.1-2.7c1.5-1.5,2.9-3.5,4.1-5.9l-0.6,2.9c-0.3,1.4-0.4,2.3-0.4,2.8c0,1.8,0.9,2.8,2.7,2.8c2,0,4.2-1.3,6.6-3.9
		l0.1-0.1l0.5-2.6L95.1,26c-2.6,2.9-4,3.5-4.7,3.5c-0.4,0-0.7-0.1-0.7-0.8c0-0.3,0.1-1.1,0.4-2.4l2.6-13c0.7-3.4,1.5-5.8,2.3-7.1
		c0.8-1.2,2.1-1.8,3.7-1.8c0.9,0,1.9,0.3,3.2,0.8l0.2,0.1l2.7-2.8L104.4,2.5z M88.4,15.8l-0.7,3.5c-1.3,2.5-2.9,4.7-4.6,6.7
		c-2.1,2.4-3.3,2.9-3.9,2.9c-0.3,0-1.2,0-1.2-2.3c0-2.3,0.7-5,2.1-7.9c1.2-2.4,2.6-3.6,4.5-3.6C85.9,15,87.1,15.3,88.4,15.8z"/>
	<path class="st17" d="M125.2,2.5c-0.9-0.2-1.9-0.4-3-0.4c-2.7,0-5.1,0.9-7.4,2.6c-1.3,1-2.3,2.1-3,3.3c-0.7,1.1-1.4,2.8-2,4.8
		c-2.2,0-3.9,0.2-5.1,0.5c-1.2,0.3-2.5,1-3.7,2c-1.8,1.5-3.3,3.3-4.5,5.5c-1.1,2.2-1.7,4.3-1.7,6.3c0,3.1,1.3,4.6,3.8,4.6
		c1.6,0,3.3-0.9,5.1-2.7c1.5-1.5,2.9-3.5,4.1-5.9l-0.6,2.9c-0.3,1.4-0.4,2.3-0.4,2.8c0,1.8,0.9,2.8,2.7,2.8c2,0,4.2-1.3,6.6-3.9
		l0.1-0.1l0.5-2.6l-0.7,0.8c-2.6,2.9-4,3.5-4.7,3.5c-0.4,0-0.7-0.1-0.7-0.8c0-0.3,0.1-1.1,0.4-2.4l2.6-13c0.7-3.4,1.5-5.8,2.3-7.1
		c0.8-1.2,2.1-1.8,3.7-1.8c0.9,0,1.9,0.3,3.2,0.8l0.2,0.1l2.7-2.8L125.2,2.5z M109.2,15.8l-0.7,3.5c-1.3,2.5-2.9,4.7-4.6,6.7
		c-2.1,2.4-3.3,2.9-3.9,2.9c-0.3,0-1.2,0-1.2-2.3c0-2.3,0.7-5,2.1-7.9c1.2-2.4,2.6-3.6,4.5-3.6C106.6,15,107.9,15.3,109.2,15.8z"/>
	<g>
		<path class="st17" d="M127.1,26c-2.6,2.9-4,3.5-4.7,3.5c-0.4,0-0.7-0.1-0.7-0.8c0-0.3,0.1-1.1,0.4-2.4l1.6-8.1l1.4-5.7l-8.7,2.8
			l-0.3,1.6l0.4-0.1c1.2-0.4,2.1-0.5,2.6-0.5c0.4,0,0.8,0.1,0.8,1.1c0,0.5-0.2,1.6-0.5,3.2l-1.1,5.7c-0.3,1.3-0.4,2.2-0.4,2.8
			c0,1.8,0.9,2.8,2.6,2.8c2,0,4.2-1.3,6.7-3.9l0.1-0.1l0.5-2.6L127.1,26z"/>
		<polygon class="st17" points="127.7,4 122.2,7.7 120.7,10.7 125.9,8 		"/>
	</g>
	<path class="st17" d="M149.3,26c-2.6,2.9-4,3.5-4.7,3.5c-0.5,0-0.7-0.2-0.7-0.8c0-0.4,0.1-1.2,0.4-2.4l1.6-8
		c0.2-0.9,0.3-1.8,0.3-2.4c0-2.1-1-3.3-3-3.3c-1.6,0-3.2,0.9-5,2.6c-1.5,1.5-2.9,3.5-4.2,5.8l0.6-2.9c0.3-1.3,0.4-2.3,0.4-2.8
		c0-1.8-0.9-2.7-2.6-2.7c-2,0-4.2,1.3-6.7,4l-0.1,0.1l-0.5,2.6l0.7-0.7c2.6-2.9,4-3.5,4.7-3.5c0.5,0,0.7,0.2,0.7,0.7
		c0,0.4-0.1,1.2-0.4,2.4l-1.6,8.1l-1.3,5.4l4.1-0.2l1.2-6c3.6-6.5,6.5-9.8,8.4-9.8c0.2,0,0.7,0,0.7,1c0,0.4-0.1,0.9-0.2,1.5l-1.6,8
		c-0.3,1.3-0.4,2.3-0.4,2.8c0,1.8,0.9,2.8,2.6,2.8c2,0,4.2-1.3,6.7-3.9l0.1-0.1l0.5-2.6L149.3,26z"/>
	<g>
		<path class="st17" d="M75.1,39.8h1.7l0.8-4.1l-0.3-0.2c-1.7-0.8-3.2-1.1-4.5-1.1c-2,0-3.8,0.6-5.3,1.9c-1.5,1.3-2.3,2.9-2.3,4.6
			c0,0.9,0.2,1.7,0.6,2.3c0.4,0.5,1.2,1.4,2.7,2.7l1.9,1.7c1.3,1.2,2,2.3,2,3.2c0,0.9-0.3,1.7-1,2.3c-0.7,0.6-1.6,0.9-2.7,0.9
			c-1.6,0-3.2-0.6-4.8-1.9l-0.3-0.3L61,54.5l0.6,0.3c1.7,0.9,3.5,1.3,5.3,1.3c2.4,0,4.4-0.6,6.1-1.9c1.8-1.3,2.7-2.9,2.7-4.8
			c0-1.5-0.9-3-2.8-4.6l-1.6-1.4c-1.2-1-2-1.8-2.4-2.3c-0.3-0.5-0.5-1-0.5-1.6c0-0.9,0.3-1.6,1-2.2c0.7-0.6,1.5-0.9,2.6-0.9
			c1,0,1.8,0.2,2.4,0.7c0.6,0.4,0.8,1,0.8,1.7c0,0.1,0,0.3,0,0.5L75.1,39.8z"/>
		<path class="st17" d="M82.5,53.3c-0.3,0-0.5,0-0.5-0.6c0-0.2,0-0.8,0.3-1.9l1.7-8.7h0.7c0.9,0,1.9,0.1,3,0.2l0.2,0l2-2.1h-5.5
			l0.9-4.6l-3.8,0.9l-0.7,3.7h-2.1l-1.8,1.9h3.6l-1.7,8.4c-0.2,1-0.3,1.8-0.3,2.5c0,1.9,1,3,2.7,3c1.7,0,3.5-0.9,5.3-2.7l0.1-0.1
			l0.5-2.7l-1,0.9C84.2,52.9,83.1,53.3,82.5,53.3z"/>
		<path class="st17" d="M105.1,40.6l-0.5-0.3c-0.6-0.3-1.2-0.5-1.9-0.5c-1.3,0-2.8,0.8-4.3,2.2c-0.9,0.9-1.8,2-2.6,3.3l0.1-0.6
			c0.2-0.8,0.2-1.6,0.2-2.2c0-2.3-1.5-2.7-2.4-2.7c-1.7,0-3.5,1.1-5.7,3.5l-0.1,0.1l-0.6,3.1l1.2-1.3c2.2-2.5,3.2-2.8,3.7-2.8
			c0.1,0,0.3,0,0.3,0.7c0,0.4-0.1,1-0.2,1.6L91.2,51L90,55.8l3.8-0.2l1-5.1c3.4-6,5.4-7.3,6.5-7.3c0.2,0,0.5,0.1,1.1,0.4l0.4,0.2
			L105.1,40.6z"/>
		<path class="st17" d="M108.6,53.4c-1,0-2.4-0.4-2.4-3.4l0-0.1c2.3-0.1,4.3-0.7,6-1.9c1.9-1.3,2.8-2.9,2.8-4.8c0-1-0.3-1.8-0.9-2.4
			c-0.6-0.6-1.3-0.9-2.3-0.9c-2.3,0-4.5,1.2-6.5,3.5c-2,2.3-3,4.8-3,7.4c0,1.5,0.4,2.8,1.3,3.7c0.9,1,2,1.5,3.4,1.5
			c2.1,0,4.6-1,7.5-3l0.2-0.1l0.5-2.4l-1,0.7C112.1,52.6,110.2,53.4,108.6,53.4z M110.7,42.1c0.3,0,1,0,1,1.6c0,1.2-0.5,2.2-1.5,3
			c-0.9,0.7-2.2,1.2-3.8,1.4c0.2-1.5,0.8-2.8,1.6-4C108.9,42.8,109.8,42.1,110.7,42.1z"/>
		<path class="st17" d="M122.6,53.4c-1,0-2.4-0.4-2.4-3.4l0-0.1c2.3-0.1,4.3-0.7,6-1.9c1.9-1.3,2.8-2.9,2.8-4.8c0-1-0.3-1.8-0.9-2.4
			c-0.6-0.6-1.3-0.9-2.3-0.9c-2.3,0-4.5,1.2-6.5,3.5c-2,2.3-3,4.8-3,7.4c0,1.5,0.4,2.8,1.3,3.7c0.9,1,2,1.5,3.4,1.5
			c2.1,0,4.6-1,7.5-3l0.2-0.1l0.5-2.4l-1,0.7C126,52.6,124.1,53.4,122.6,53.4z M124.1,46.7c-0.9,0.7-2.2,1.2-3.8,1.4
			c0.2-1.5,0.8-2.8,1.6-4c0.9-1.3,1.8-1.9,2.7-1.9c0.3,0,1,0,1,1.6C125.6,44.9,125.1,45.9,124.1,46.7z"/>
		<path class="st17" d="M137.7,40.2l0.9-4.6l-3.8,0.9l-0.7,3.7h-2.1l-1.8,1.9h3.6l-1.7,8.4c-0.2,1-0.3,1.8-0.3,2.5c0,1.9,1,3,2.7,3
			c1.7,0,3.5-0.9,5.3-2.7l0.1-0.1l0.5-2.7l-1,0.9c-1.9,1.7-3,2-3.6,2c-0.3,0-0.5,0-0.5-0.6c0-0.2,0-0.8,0.3-1.9l1.7-8.7h0.7
			c0.9,0,1.9,0.1,3,0.2l0.2,0l2-2.1H137.7z"/>
	</g>
	<path class="st17" d="M63.9,46.3c-1.2-1.1-2.5-1.7-2.5-1.7c0-0.9-0.3-1.7-1-1.8c-0.6-0.1-1,0.6-1,0.6c-2-2.5-4.3-3.4-5.6-3.8V39
		h-0.1c0.6-0.3,0.9-0.9,0.9-1.6c0-1-0.8-1.9-1.9-1.9c-1,0-1.9,0.8-1.9,1.9c0,0.7,0.4,1.3,0.9,1.6h-0.1v0.8c-6.2,1.9-6.8,4.3-6.8,4.3
		s-1.5,1.4-4.5,1.4c-3,0-9.2-3.1-12.4-4s-6.2-0.3-6.2,0.7c0,1,1,1.1,1,1.1c2.1-0.1,5.9,1.6,15.8,9.2c3.6,2.8,7.5,4.4,11,5
		c-1.2,0.7-2.9,1.7-4.2,3.2c-2.5,2.8,5.4,3.2,7.6,3.2s10.1-0.5,7.6-3.2c-1.4-1.5-3-2.6-4.2-3.3c3.2-0.6,6-2.1,7.7-4.2
		c0.4-0.5,0.7-1,0.9-1.4C65,51.8,66.7,49.1,63.9,46.3z M23.7,42.3c-0.7,0-1.2-0.1-1.2-0.4c0-0.2,0.5-0.5,1.2-0.5
		c0.7,0,1.2,0.1,1.2,0.4C24.9,42,24.4,42.2,23.7,42.3z"/>
	<path class="st17" d="M23.2,40.6c0,0-1-0.7,0-2.6c0.9-1.6-0.3-1.9-4.3-1.7c-3,0.1-5.1,0.3-4.4-1.9s1.8-5.5-3.9-6.5s-11,4.9-9.2,7.4
		c1.8,2.4,10.6,5.5,22.3-6.6l-1.1-1.8c0,0-7.3,7.8-15.2,8c-7.2,0.2,0.2-6.4,3.8-4.1s-2,4.4,3.2,6.6c2.9,1.2,8.8-1.6,8.2,0.8
		c-0.2,1-0.4,2,0.1,2.5S23.2,40.6,23.2,40.6z"/>
</g>
</svg>
